<svg width="48" height="48" viewBox="0 0 48 48" fill="none" xmlns="http://www.w3.org/2000/svg">
<path d="M21.6136 3.75H17.5909V7.8H13.5682V11.85H9.54545V15.9H1.5V32.1H9.54545V36.15H13.5682V40.2H17.5909V44.25H21.6136V3.75ZM13.5682 36.15V32.1H9.54545V28.05H5.52273V19.95H9.54545V15.9H13.5682V11.85H17.5909V36.15H13.5682ZM25.6364 19.95H29.6591V28.05H25.6364V19.95ZM41.7273 7.8H37.7045V3.75H25.6364V7.8H37.7045V11.85H41.7273V36.15H37.7045V40.2H25.6364V44.25H37.7045V40.2H41.7273V36.15H45.75V11.85H41.7273V7.8ZM37.7045 15.9H33.6818V11.85H25.6364V15.9H33.6818V32.1H25.6364V36.15H33.6818V32.1H37.7045V15.9Z" fill="#101010"/>
</svg>
