<svg width="40" height="40" viewBox="0 0 40 40" fill="none" xmlns="http://www.w3.org/2000/svg">
<path d="M18.0114 3.125H14.6591V6.5H11.3068V9.875H7.95455V13.25H1.25V26.75H7.95455V30.125H11.3068V33.5H14.6591V36.875H18.0114V3.125ZM11.3068 30.125V26.75H7.95455V23.375H4.60227V16.625H7.95455V13.25H11.3068V9.875H14.6591V30.125H11.3068ZM21.3636 16.625H24.7159V23.375H21.3636V16.625ZM34.7727 6.5H31.4205V3.125H21.3636V6.5H31.4205V9.875H34.7727V30.125H31.4205V33.5H21.3636V36.875H31.4205V33.5H34.7727V30.125H38.125V9.875H34.7727V6.5ZM31.4205 13.25H28.0682V9.875H21.3636V13.25H28.0682V26.75H21.3636V30.125H28.0682V26.75H31.4205V13.25Z" fill="#101010"/>
</svg>
